<svg id="svg" version="1.1" xmlns="http://www.w3.org/2000/svg" xmlns:xlink="http://www.w3.org/1999/xlink" width="400" height="400" viewBox="0, 0, 400,400"><g id="svgg"><path id="path0" d="M255.427 195.156 C 255.308 195.348,255.190 197.058,255.163 198.955 C 255.136 200.853,254.954 202.505,254.757 202.626 C 254.561 202.748,254.400 203.737,254.400 204.824 C 254.400 205.911,254.220 206.800,254.000 206.800 C 253.780 206.800,253.600 207.259,253.600 207.819 C 253.600 208.380,253.240 209.584,252.800 210.494 C 252.360 211.405,252.000 212.711,252.000 213.395 C 252.000 214.712,251.205 216.792,250.700 216.797 C 250.535 216.799,250.400 217.078,250.400 217.417 C 250.400 217.756,250.040 218.420,249.600 218.892 C 249.158 219.367,248.800 220.304,248.800 220.987 C 248.800 221.765,248.503 222.437,248.000 222.800 C 247.560 223.117,247.200 223.657,247.200 224.000 C 247.200 224.343,246.840 224.883,246.400 225.200 C 245.960 225.517,245.600 226.107,245.600 226.512 C 245.600 226.916,245.420 227.136,245.200 227.000 C 244.980 226.864,244.800 226.952,244.800 227.195 C 244.800 227.439,244.362 228.044,243.828 228.539 C 243.293 229.035,242.733 229.926,242.584 230.520 C 242.435 231.114,242.145 231.600,241.938 231.600 C 241.330 231.600,239.600 233.510,239.600 234.182 C 239.600 234.522,239.316 234.800,238.969 234.800 C 238.621 234.800,237.646 235.520,236.800 236.400 C 235.954 237.280,235.054 238.000,234.800 238.000 C 234.546 238.000,233.646 238.720,232.800 239.600 C 231.954 240.480,230.979 241.200,230.631 241.200 C 230.284 241.200,230.000 241.350,230.000 241.533 C 230.000 241.717,229.769 241.867,229.488 241.867 C 228.809 241.867,226.800 243.196,226.800 243.646 C 226.800 243.841,226.288 244.000,225.662 244.000 C 225.032 244.000,224.201 244.357,223.800 244.800 C 223.402 245.240,222.688 245.600,222.213 245.600 C 221.739 245.600,220.975 245.950,220.515 246.378 C 219.956 246.899,219.011 247.187,217.660 247.249 C 216.549 247.300,215.732 247.489,215.844 247.671 C 215.956 247.852,215.497 248.000,214.824 248.000 C 214.151 248.000,213.600 248.180,213.600 248.400 C 213.600 248.620,213.071 248.800,212.424 248.800 C 211.777 248.800,211.136 248.980,211.000 249.200 C 210.864 249.420,210.144 249.600,209.400 249.600 C 208.656 249.600,207.936 249.780,207.800 250.000 C 207.662 250.223,205.796 250.400,203.576 250.400 C 199.867 250.400,199.600 250.454,199.600 251.200 C 199.600 251.640,199.409 252.000,199.176 252.000 C 198.943 252.000,198.855 252.165,198.980 252.368 C 199.105 252.570,198.974 252.975,198.689 253.268 C 198.404 253.560,198.115 254.610,198.047 255.600 C 197.980 256.590,197.788 257.490,197.622 257.600 C 197.455 257.710,197.214 258.250,197.085 258.800 C 196.608 260.838,195.317 263.984,195.063 263.729 C 194.918 263.585,194.800 264.249,194.800 265.205 C 194.800 266.975,194.077 269.602,193.468 270.045 C 193.283 270.179,193.147 270.449,193.165 270.645 C 193.183 270.840,192.930 271.810,192.603 272.800 C 192.277 273.790,191.962 275.275,191.905 276.099 C 191.847 276.924,191.665 277.599,191.500 277.599 C 189.945 277.603,192.141 281.026,194.400 282.117 C 195.170 282.489,196.421 283.425,197.181 284.197 C 197.940 284.969,198.935 285.600,199.392 285.600 C 199.849 285.600,200.483 285.960,200.800 286.400 C 201.117 286.840,201.742 287.203,202.188 287.206 C 202.859 287.211,202.896 287.280,202.400 287.600 C 201.915 287.914,201.972 287.989,202.700 287.994 C 203.195 287.997,203.600 288.191,203.600 288.424 C 203.600 288.657,203.765 288.745,203.968 288.620 C 204.170 288.495,204.652 288.709,205.039 289.096 C 205.426 289.483,205.801 289.755,205.871 289.700 C 206.248 289.407,207.612 289.658,207.411 289.983 C 207.123 290.448,209.240 291.600,210.380 291.600 C 210.831 291.600,211.200 291.780,211.200 292.000 C 211.200 292.220,211.434 292.400,211.720 292.400 C 212.456 292.400,214.393 293.341,214.397 293.700 C 214.399 293.865,214.858 294.000,215.417 294.000 C 215.976 294.000,216.820 294.360,217.292 294.800 C 217.927 295.392,218.704 295.600,220.275 295.600 C 221.444 295.600,222.400 295.780,222.400 296.000 C 222.400 296.220,222.760 296.400,223.200 296.400 C 223.640 296.400,224.000 296.580,224.000 296.800 C 224.000 297.020,224.439 297.200,224.976 297.200 C 225.513 297.200,226.064 297.380,226.200 297.600 C 226.336 297.820,227.167 298.000,228.047 298.000 C 229.012 298.000,229.549 298.159,229.400 298.400 C 229.241 298.657,230.651 298.800,233.343 298.800 C 235.694 298.800,237.592 298.970,237.667 299.188 C 237.740 299.402,239.465 299.603,241.500 299.634 C 243.955 299.673,245.202 299.845,245.206 300.146 C 245.209 300.396,245.389 300.330,245.606 300.000 C 245.956 299.467,246.044 299.467,246.394 300.000 C 246.657 300.401,246.790 300.434,246.794 300.100 C 246.798 299.733,247.894 299.600,250.920 299.600 C 253.186 299.600,255.211 299.430,255.420 299.222 C 255.629 299.014,257.371 298.809,259.290 298.768 C 261.210 298.726,262.684 298.536,262.567 298.346 C 262.449 298.156,262.993 298.000,263.776 298.000 C 264.559 298.000,265.200 297.820,265.200 297.600 C 265.200 297.380,265.740 297.200,266.400 297.200 C 267.060 297.200,267.600 297.020,267.600 296.800 C 267.600 296.580,267.960 296.400,268.400 296.400 C 268.840 296.400,269.200 296.220,269.200 296.000 C 269.200 295.780,269.920 295.600,270.800 295.600 C 271.680 295.600,272.400 295.420,272.400 295.200 C 272.400 294.980,272.810 294.800,273.312 294.800 C 273.813 294.800,274.483 294.440,274.800 294.000 C 275.117 293.560,275.697 293.200,276.088 293.200 C 276.480 293.200,276.800 293.020,276.800 292.800 C 276.800 292.580,277.081 292.400,277.424 292.400 C 277.767 292.400,277.958 292.256,277.849 292.080 C 277.741 291.904,278.310 291.716,279.115 291.661 C 279.920 291.607,280.867 291.301,281.220 290.981 C 281.574 290.662,282.040 290.400,282.256 290.400 C 282.472 290.400,283.037 290.039,283.510 289.598 C 283.984 289.157,284.766 288.752,285.249 288.698 C 285.733 288.644,286.774 287.970,287.564 287.200 C 288.354 286.430,289.492 285.546,290.093 285.236 C 290.695 284.926,291.292 284.341,291.420 283.936 C 291.636 283.257,292.101 283.019,292.930 283.163 C 293.111 283.194,293.145 283.035,293.006 282.810 C 292.867 282.584,293.033 282.400,293.376 282.400 C 293.719 282.400,294.000 282.220,294.000 282.000 C 294.000 281.780,294.281 281.600,294.624 281.600 C 294.967 281.600,295.136 281.420,295.000 281.200 C 294.864 280.980,295.009 280.800,295.322 280.800 C 296.044 280.800,305.200 271.967,305.200 271.271 C 305.200 270.986,305.380 270.864,305.600 271.000 C 305.820 271.136,306.000 270.967,306.000 270.624 C 306.000 270.281,306.139 270.000,306.309 270.000 C 306.479 270.000,306.964 269.358,307.387 268.572 C 307.810 267.787,308.481 266.971,308.878 266.758 C 309.275 266.546,309.600 266.000,309.600 265.546 C 309.600 265.092,310.140 264.217,310.800 263.600 C 311.460 262.983,312.000 262.191,312.000 261.840 C 312.000 261.488,312.180 261.200,312.400 261.200 C 312.620 261.200,312.800 260.840,312.800 260.400 C 312.800 259.960,312.991 259.600,313.224 259.600 C 313.457 259.600,313.539 259.425,313.407 259.211 C 313.274 258.997,313.544 258.502,314.006 258.111 C 315.041 257.235,315.964 255.365,316.084 253.900 C 316.134 253.295,316.315 252.800,316.487 252.800 C 316.659 252.800,316.800 252.522,316.800 252.183 C 316.800 251.844,317.160 251.180,317.600 250.708 C 318.040 250.236,318.400 249.433,318.400 248.925 C 318.400 248.416,318.580 248.000,318.800 248.000 C 319.020 248.000,319.200 247.280,319.200 246.400 C 319.200 245.520,319.380 244.800,319.600 244.800 C 319.820 244.800,320.000 244.440,320.000 244.000 C 320.000 243.560,320.180 243.200,320.400 243.200 C 320.620 243.200,320.800 242.874,320.800 242.475 C 320.800 242.076,321.160 241.005,321.600 240.094 C 322.062 239.138,322.400 237.620,322.400 236.499 C 322.400 235.433,322.563 234.389,322.762 234.180 C 322.962 233.971,323.227 232.540,323.353 231.000 C 323.478 229.460,323.759 226.598,323.977 224.641 C 324.195 222.683,324.279 220.928,324.163 220.741 C 324.048 220.553,324.098 220.400,324.276 220.400 C 324.746 220.400,324.612 216.275,324.029 212.800 C 323.752 211.150,323.434 209.080,323.322 208.200 C 323.210 207.320,322.956 206.429,322.759 206.220 C 322.562 206.011,322.400 204.764,322.400 203.448 C 322.400 201.062,321.725 198.400,321.120 198.400 C 320.944 198.400,320.800 198.128,320.800 197.795 C 320.800 197.462,320.575 196.787,320.300 196.295 C 320.025 195.803,319.777 195.347,319.749 195.282 C 319.596 194.928,317.613 194.856,317.402 195.197 C 317.033 195.793,314.001 195.707,313.994 195.100 C 313.990 194.790,313.876 194.752,313.694 195.000 C 313.266 195.582,309.988 195.688,309.329 195.141 C 308.903 194.787,308.654 194.786,308.303 195.137 C 307.735 195.705,305.340 195.750,305.000 195.200 C 304.651 194.636,300.659 194.701,300.080 195.280 C 299.738 195.622,299.600 195.630,299.600 195.307 C 299.600 194.754,255.768 194.605,255.427 195.156 M173.418 223.571 C 173.318 223.733,173.677 224.517,174.218 225.312 C 174.758 226.107,175.224 227.082,175.253 227.479 C 175.282 227.875,175.418 227.570,175.556 226.800 C 175.694 226.030,175.671 225.340,175.504 225.267 C 175.337 225.193,175.200 224.809,175.200 224.413 C 175.200 223.693,173.763 223.013,173.418 223.571 M6.300 364.229 C 5.695 364.557,5.200 364.993,5.200 365.199 C 5.200 365.574,6.775 366.579,6.977 366.332 C 7.121 366.156,7.605 363.596,7.490 363.616 C 7.441 363.625,6.905 363.901,6.300 364.229 M37.800 394.800 C 37.664 395.020,37.203 395.200,36.776 395.200 C 35.882 395.200,35.735 395.813,36.554 396.127 C 37.163 396.361,38.800 395.377,38.800 394.777 C 38.800 394.278,38.113 394.293,37.800 394.800 M128.667 398.117 C 128.263 398.529,128.043 398.976,128.176 399.110 C 128.498 399.431,129.734 398.180,129.546 397.723 C 129.466 397.527,129.070 397.704,128.667 398.117 " stroke="none" fill="#9a8f7c" fill-rule="evenodd"></path><path id="path1" d="M277.000 1.865 C 276.560 1.959,274.670 2.316,272.800 2.656 C 270.930 2.997,268.334 3.754,267.031 4.338 C 261.851 6.661,258.983 8.290,258.606 9.124 C 258.355 9.679,257.973 9.919,257.552 9.785 C 257.138 9.653,256.512 10.026,255.872 10.788 C 255.311 11.454,254.705 12.005,254.526 12.011 C 254.145 12.024,251.893 13.699,249.339 15.869 C 247.182 17.701,243.599 22.052,242.262 24.463 C 240.344 27.921,239.272 30.235,238.769 32.000 C 238.487 32.990,238.126 33.980,237.967 34.200 C 237.380 35.012,236.076 40.301,235.645 43.621 C 235.336 45.993,235.200 64.713,235.200 104.707 L 235.200 162.372 236.100 162.886 C 237.282 163.561,347.051 163.871,353.124 163.216 C 358.348 162.652,360.124 162.363,360.600 161.999 C 360.820 161.830,361.630 161.564,362.400 161.407 C 363.170 161.250,364.173 160.886,364.629 160.598 C 365.085 160.310,366.255 159.843,367.229 159.560 C 368.203 159.277,369.405 158.790,369.900 158.477 C 370.395 158.164,370.803 158.064,370.806 158.254 C 370.809 158.444,370.944 158.395,371.106 158.145 C 371.431 157.643,373.651 156.248,375.187 155.582 C 378.370 154.201,386.661 145.690,389.100 141.300 C 389.375 140.805,389.825 139.995,390.100 139.500 C 390.375 139.005,390.690 138.510,390.800 138.400 C 391.020 138.180,393.007 134.082,394.346 131.089 C 394.816 130.038,395.200 128.881,395.200 128.518 C 395.200 127.901,395.715 126.064,396.409 124.200 C 398.458 118.701,397.273 102.269,394.354 95.704 C 393.939 94.772,393.599 93.782,393.599 93.504 C 393.598 93.227,393.238 92.411,392.799 91.690 C 392.359 90.970,392.000 90.130,392.000 89.824 C 392.000 89.517,391.849 89.207,391.665 89.133 C 391.481 89.060,390.493 87.740,389.469 86.200 C 387.321 82.966,384.954 80.372,383.215 79.345 C 382.547 78.950,382.000 78.398,382.000 78.117 C 382.000 77.836,381.432 77.110,380.739 76.503 C 380.045 75.896,379.063 74.995,378.557 74.500 C 378.051 74.005,377.536 73.600,377.414 73.600 C 377.291 73.600,376.158 72.897,374.895 72.038 C 363.898 64.553,349.931 62.584,336.570 66.634 C 330.010 68.623,329.163 68.179,331.065 63.749 C 331.910 61.782,332.457 58.393,332.948 52.100 C 333.426 45.967,331.808 37.523,329.153 32.305 C 328.959 31.923,328.800 31.336,328.800 31.000 C 328.800 30.235,328.070 28.943,326.891 27.620 C 326.391 27.059,325.630 25.880,325.200 25.000 C 324.770 24.120,323.964 22.913,323.409 22.317 C 322.854 21.722,322.400 21.042,322.400 20.806 C 322.400 19.621,312.111 9.600,310.893 9.600 C 310.676 9.600,310.277 9.334,310.007 9.008 C 309.737 8.683,309.040 8.176,308.458 7.882 C 307.876 7.588,307.040 7.162,306.600 6.937 C 301.103 4.116,296.480 2.830,288.800 1.987 C 285.670 1.643,278.383 1.567,277.000 1.865 M196.800 170.853 C 196.030 171.075,194.680 171.462,193.800 171.712 C 192.343 172.127,188.392 174.079,187.405 174.871 C 177.803 182.581,174.263 193.982,177.988 205.195 C 178.682 207.282,179.688 209.565,180.225 210.268 C 180.761 210.971,181.200 211.724,181.200 211.940 C 181.200 212.156,181.335 212.393,181.500 212.467 C 181.665 212.540,182.699 213.590,183.797 214.800 C 186.134 217.374,188.395 219.112,190.149 219.683 C 190.837 219.906,192.173 220.449,193.117 220.889 C 195.369 221.937,205.314 222.060,208.800 221.083 C 218.108 218.474,222.471 214.291,226.741 203.881 C 226.993 203.266,227.200 201.958,227.200 200.976 C 227.200 199.993,227.417 198.842,227.681 198.419 C 229.343 195.757,225.297 181.716,222.335 179.867 C 221.931 179.614,221.600 179.232,221.600 179.017 C 221.600 178.413,217.910 175.220,216.903 174.953 C 216.409 174.822,216.087 174.582,216.187 174.421 C 216.482 173.944,211.066 171.434,208.800 170.997 C 206.376 170.529,198.261 170.432,196.800 170.853 M170.749 224.004 C 170.392 224.213,169.042 224.670,167.749 225.019 C 166.457 225.367,164.500 225.913,163.400 226.230 C 162.300 226.548,160.230 227.096,158.800 227.448 C 156.135 228.105,148.145 230.515,142.800 232.276 C 141.150 232.819,138.720 233.593,137.400 233.995 C 136.080 234.398,133.200 235.294,131.000 235.987 C 128.800 236.680,126.280 237.395,125.400 237.577 C 124.520 237.758,122.000 238.556,119.800 239.349 C 117.600 240.142,115.506 240.793,115.147 240.796 C 114.788 240.798,112.088 241.592,109.147 242.560 C 102.124 244.871,95.452 246.940,91.000 248.186 C 86.201 249.530,82.195 250.721,80.000 251.458 C 77.136 252.419,72.451 253.879,69.200 254.825 C 67.550 255.304,65.750 255.852,65.200 256.041 C 64.650 256.230,63.210 256.643,62.000 256.959 C 60.790 257.275,58.990 257.822,58.000 258.175 C 53.199 259.885,42.673 263.307,40.000 264.026 C 36.896 264.861,33.582 265.852,29.347 267.212 C 27.999 267.646,26.652 268.000,26.355 268.000 C 26.058 268.000,24.912 268.346,23.808 268.770 C 22.703 269.193,20.360 269.931,18.600 270.410 C 14.347 271.567,10.362 272.810,9.505 273.246 C 9.123 273.441,8.572 273.600,8.281 273.600 C 7.348 273.600,4.632 275.093,3.645 276.148 C 2.023 277.881,3.102 281.926,5.421 282.808 C 5.959 283.013,6.400 283.365,6.400 283.590 C 6.400 283.816,6.579 284.000,6.798 284.000 C 7.779 284.000,16.666 288.591,24.518 293.155 C 26.453 294.280,28.274 295.200,28.564 295.200 C 28.855 295.200,29.550 295.560,30.109 296.000 C 30.669 296.440,31.283 296.800,31.474 296.800 C 31.665 296.800,32.897 297.356,34.211 298.036 C 39.412 300.728,40.272 301.161,42.200 302.058 C 43.300 302.570,44.292 303.113,44.405 303.264 C 44.518 303.416,45.958 304.242,47.605 305.101 C 49.252 305.960,50.960 306.859,51.400 307.099 C 51.840 307.338,53.100 307.914,54.200 308.378 C 58.258 310.090,59.255 311.193,57.819 312.384 C 57.479 312.667,57.194 313.101,57.187 313.349 C 57.179 313.597,55.646 315.240,53.779 317.000 C 51.913 318.760,49.444 321.185,48.293 322.389 C 47.142 323.593,45.700 325.033,45.089 325.589 C 44.477 326.145,40.787 329.818,36.889 333.751 C 32.990 337.685,24.881 345.855,18.868 351.909 C 8.225 362.624,7.200 363.843,7.200 365.781 C 7.200 366.738,32.235 392.400,33.168 392.400 C 33.406 392.400,33.600 392.670,33.600 393.000 C 33.600 393.330,33.811 393.600,34.069 393.600 C 34.326 393.600,34.821 393.853,35.169 394.163 C 36.142 395.030,37.334 395.066,38.557 394.265 C 39.878 393.399,62.395 370.988,62.412 370.522 C 62.431 370.013,66.437 365.917,68.200 364.604 C 70.014 363.252,76.734 356.509,79.564 353.200 C 83.324 348.804,89.093 343.200,89.858 343.200 C 90.517 343.200,94.000 347.703,94.000 348.555 C 94.000 348.681,94.601 349.733,95.336 350.892 C 96.070 352.052,97.214 353.990,97.877 355.200 C 99.831 358.766,100.691 360.245,101.874 362.074 C 102.488 363.023,103.214 364.250,103.488 364.800 C 103.761 365.350,104.146 366.070,104.342 366.400 C 105.354 368.097,106.400 370.375,106.400 370.879 C 106.400 371.193,106.760 371.836,107.200 372.308 C 107.640 372.780,108.000 373.523,108.000 373.960 C 108.000 374.396,108.189 374.870,108.421 375.013 C 108.652 375.156,109.237 376.111,109.721 377.136 C 110.774 379.369,113.473 384.022,115.792 387.600 C 116.718 389.030,117.809 390.920,118.217 391.800 C 118.625 392.680,119.076 393.490,119.219 393.600 C 119.363 393.710,119.694 394.205,119.954 394.700 C 120.215 395.195,120.685 395.600,121.000 395.600 C 121.315 395.600,121.773 395.975,122.018 396.434 C 122.264 396.893,122.565 397.168,122.688 397.045 C 122.811 396.923,123.440 397.267,124.086 397.811 C 127.604 400.771,130.533 397.770,132.056 389.647 C 132.278 388.463,132.654 387.023,132.891 386.447 C 133.129 385.871,133.372 384.860,133.433 384.200 C 133.494 383.540,134.019 381.380,134.600 379.400 C 135.868 375.079,137.165 370.172,139.410 361.200 C 140.027 358.735,140.387 357.450,141.592 353.400 C 142.050 351.860,142.664 349.790,142.957 348.800 C 143.250 347.810,143.706 346.100,143.970 345.000 C 144.234 343.900,144.799 341.886,145.225 340.525 C 145.651 339.164,146.000 337.709,146.000 337.292 C 146.000 336.875,146.123 336.410,146.274 336.259 C 146.690 335.844,147.587 333.103,147.594 332.228 C 147.601 331.387,148.290 329.011,148.849 327.905 C 149.042 327.523,149.200 326.883,149.200 326.482 C 149.200 325.319,150.864 318.563,152.570 312.800 C 153.595 309.334,154.589 305.712,155.204 303.200 C 155.393 302.430,155.750 301.080,155.999 300.200 C 156.248 299.320,156.696 297.610,156.996 296.400 C 157.296 295.190,157.826 293.061,158.173 291.669 C 158.521 290.277,159.012 288.751,159.265 288.278 C 159.518 287.806,159.863 286.875,160.031 286.209 C 160.199 285.544,160.627 283.830,160.983 282.400 C 161.879 278.795,163.211 274.337,163.641 273.505 C 163.838 273.123,164.000 272.277,164.000 271.625 C 164.000 270.305,164.659 267.697,166.128 263.200 C 166.666 261.550,167.226 259.390,167.372 258.400 C 167.517 257.410,167.972 255.610,168.383 254.400 C 169.181 252.047,169.807 249.808,171.175 244.400 C 171.648 242.530,172.220 240.370,172.445 239.600 C 172.910 238.007,174.191 232.483,174.862 229.177 C 175.587 225.603,173.184 222.582,170.749 224.004 " stroke="none" fill="#f48e1e" fill-rule="evenodd"></path><path id="path2" d="M271.889 0.568 C 271.542 0.916,270.740 1.200,270.109 1.200 C 269.477 1.200,268.785 1.375,268.571 1.589 C 268.358 1.802,267.786 2.038,267.302 2.112 C 266.817 2.186,266.296 2.371,266.144 2.523 C 265.991 2.675,265.357 2.800,264.733 2.800 C 264.110 2.800,263.600 2.946,263.600 3.125 C 263.600 3.304,262.970 3.698,262.200 4.000 C 261.430 4.302,260.800 4.696,260.800 4.875 C 260.800 5.054,260.440 5.200,260.000 5.200 C 259.560 5.200,259.200 5.380,259.200 5.600 C 259.200 5.820,258.742 6.000,258.182 6.000 C 257.178 6.000,255.200 7.575,255.200 8.374 C 255.200 8.600,254.750 8.898,254.200 9.036 C 253.650 9.174,253.200 9.447,253.200 9.643 C 253.200 9.840,252.949 10.000,252.643 10.000 C 252.336 10.000,251.989 10.253,251.870 10.562 C 251.600 11.265,248.054 13.733,247.314 13.733 C 247.013 13.733,246.465 14.243,246.097 14.867 C 245.729 15.490,245.208 16.000,244.941 16.000 C 244.673 16.000,244.344 16.346,244.210 16.768 C 244.076 17.191,243.344 18.216,242.583 19.046 C 241.822 19.877,241.200 20.751,241.200 20.990 C 241.200 21.228,240.840 21.683,240.400 22.000 C 239.843 22.402,239.600 23.035,239.600 24.088 C 239.600 24.920,239.420 25.600,239.200 25.600 C 238.980 25.600,238.800 25.960,238.800 26.400 C 238.800 26.840,238.620 27.200,238.400 27.200 C 238.180 27.200,238.000 27.560,238.000 28.000 C 238.000 28.440,237.865 28.801,237.700 28.803 C 237.216 28.808,236.400 30.864,236.400 32.080 C 236.400 32.696,236.220 33.200,236.000 33.200 C 235.780 33.200,235.600 33.549,235.600 33.976 C 235.600 34.403,235.420 34.864,235.200 35.000 C 234.980 35.136,234.800 35.957,234.800 36.824 C 234.800 37.691,234.620 38.400,234.400 38.400 C 234.180 38.400,234.000 39.019,234.000 39.776 C 234.000 40.533,233.820 41.264,233.600 41.400 C 233.359 41.549,233.200 44.330,233.200 48.400 C 233.200 52.114,233.037 55.253,232.839 55.376 C 232.367 55.668,232.370 81.134,232.842 81.426 C 233.333 81.729,233.296 85.493,232.800 85.800 C 232.227 86.154,232.305 88.295,232.900 88.535 C 233.300 88.696,233.300 88.743,232.900 88.768 C 232.517 88.793,232.400 90.757,232.400 97.167 C 232.400 103.486,232.522 105.583,232.900 105.735 C 233.300 105.896,233.300 105.943,232.900 105.968 C 232.311 106.006,232.213 108.000,232.800 108.000 C 233.020 108.000,233.200 108.270,233.200 108.600 C 233.200 108.930,233.020 109.200,232.800 109.200 C 232.178 109.200,232.257 154.097,232.880 154.720 C 233.253 155.093,233.253 155.200,232.880 155.200 C 232.616 155.200,232.400 155.470,232.400 155.800 C 232.400 156.130,232.625 156.403,232.900 156.406 C 233.245 156.410,233.221 156.525,232.823 156.777 C 232.352 157.075,232.334 157.336,232.723 158.190 C 232.985 158.766,233.200 160.399,233.200 161.819 C 233.200 164.321,233.231 164.400,234.224 164.400 C 234.787 164.400,235.142 164.571,235.013 164.779 C 234.867 165.015,239.667 165.170,247.689 165.188 C 255.710 165.207,260.651 165.366,260.733 165.609 C 260.918 166.151,262.000 166.102,262.000 165.551 C 262.000 165.231,262.147 165.224,262.514 165.528 C 263.061 165.983,263.901 165.965,264.672 165.482 C 264.932 165.320,265.258 165.370,265.396 165.593 C 265.739 166.148,268.400 166.111,268.400 165.551 C 268.400 165.246,268.598 165.267,269.017 165.614 C 269.484 166.002,269.746 166.014,270.097 165.663 C 270.679 165.081,278.000 165.023,278.000 165.600 C 278.000 165.820,278.450 166.000,279.000 166.000 C 279.550 166.000,280.000 165.820,280.000 165.600 C 280.000 164.961,309.868 165.060,310.167 165.700 C 310.353 166.100,310.447 166.100,310.633 165.700 C 310.909 165.108,313.200 165.019,313.200 165.600 C 313.200 165.820,313.549 166.000,313.976 166.000 C 314.403 166.000,314.864 165.820,315.000 165.600 C 315.322 165.079,317.600 165.079,317.600 165.600 C 317.600 166.154,319.098 166.105,319.285 165.546 C 319.393 165.222,319.691 165.250,320.318 165.642 C 321.029 166.086,321.354 166.096,321.995 165.696 C 322.595 165.321,326.994 165.200,339.995 165.200 C 351.198 165.200,357.200 165.060,357.200 164.800 C 357.200 164.580,357.920 164.400,358.800 164.400 C 359.680 164.400,360.400 164.220,360.400 164.000 C 360.400 163.780,360.940 163.600,361.600 163.600 C 362.260 163.600,362.800 163.420,362.800 163.200 C 362.800 162.980,363.340 162.800,364.000 162.800 C 364.660 162.800,365.200 162.620,365.200 162.400 C 365.200 162.180,365.740 162.000,366.400 162.000 C 367.060 162.000,367.600 161.820,367.600 161.600 C 367.600 161.380,367.920 161.200,368.312 161.200 C 368.703 161.200,369.283 160.840,369.600 160.400 C 369.917 159.960,370.576 159.600,371.065 159.600 C 371.553 159.600,372.064 159.420,372.200 159.200 C 372.336 158.980,372.887 158.800,373.424 158.800 C 373.961 158.800,374.400 158.620,374.400 158.400 C 374.400 158.180,374.608 158.000,374.862 158.000 C 375.116 158.000,375.914 157.550,376.636 157.000 C 377.357 156.450,378.249 156.000,378.619 156.000 C 379.795 156.000,382.400 154.296,382.400 153.526 C 382.400 153.067,382.694 152.800,383.200 152.800 C 383.640 152.800,384.000 152.621,384.000 152.403 C 384.000 152.185,384.540 151.525,385.200 150.937 C 385.860 150.349,386.400 149.626,386.400 149.330 C 386.400 149.034,386.760 148.484,387.200 148.107 C 387.640 147.730,388.000 147.192,388.000 146.911 C 388.000 146.630,388.180 146.400,388.400 146.400 C 388.620 146.400,388.800 146.055,388.800 145.633 C 388.800 145.212,388.935 144.807,389.100 144.733 C 389.642 144.492,391.600 141.231,391.600 140.569 C 391.600 140.213,392.140 139.417,392.800 138.800 C 393.460 138.183,394.000 137.419,394.000 137.102 C 394.000 136.784,394.360 136.198,394.800 135.800 C 395.296 135.351,395.600 134.568,395.600 133.738 C 395.600 133.002,395.780 132.400,396.000 132.400 C 396.220 132.400,396.400 132.040,396.400 131.600 C 396.400 131.160,396.535 130.799,396.700 130.797 C 397.275 130.791,398.000 128.628,398.000 126.920 C 398.000 125.974,398.180 125.200,398.400 125.200 C 398.657 125.200,398.800 121.133,398.800 113.800 C 398.800 106.467,398.657 102.400,398.400 102.400 C 398.180 102.400,398.000 101.691,398.000 100.824 C 398.000 99.957,397.820 99.136,397.600 99.000 C 397.380 98.864,397.200 98.324,397.200 97.800 C 397.200 97.276,397.020 96.736,396.800 96.600 C 396.580 96.464,396.400 95.733,396.400 94.976 C 396.400 94.219,396.220 93.600,396.000 93.600 C 395.780 93.600,395.600 92.797,395.600 91.815 C 395.600 90.264,395.391 89.824,394.000 88.447 C 393.120 87.576,392.400 86.660,392.400 86.413 C 392.400 86.166,391.995 85.548,391.500 85.041 C 390.029 83.532,388.800 82.014,388.793 81.697 C 388.789 81.534,387.889 80.436,386.793 79.258 C 385.697 78.079,384.800 76.967,384.800 76.785 C 384.800 76.603,384.426 76.335,383.970 76.190 C 383.513 76.046,381.806 74.593,380.176 72.964 C 378.546 71.334,376.980 70.000,376.695 70.000 C 376.410 70.000,375.917 69.640,375.600 69.200 C 375.283 68.760,374.799 68.400,374.526 68.400 C 374.252 68.400,373.835 68.040,373.600 67.600 C 373.323 67.082,372.762 66.800,372.010 66.800 C 371.370 66.800,370.736 66.620,370.600 66.400 C 370.464 66.180,369.980 66.000,369.523 66.000 C 369.067 66.000,368.403 65.681,368.047 65.291 C 366.870 64.000,365.244 63.600,361.181 63.600 C 358.992 63.600,357.200 63.435,357.200 63.233 C 357.200 62.723,342.848 62.662,342.237 63.169 C 341.972 63.389,340.506 63.595,338.978 63.628 C 337.450 63.661,335.816 63.928,335.346 64.223 C 334.876 64.517,334.381 64.648,334.246 64.513 C 333.832 64.099,333.973 56.864,334.400 56.600 C 334.915 56.282,334.938 42.299,334.424 41.780 C 334.217 41.571,334.015 40.140,333.974 38.600 C 333.891 35.407,333.389 34.000,332.332 34.000 C 331.785 34.000,331.600 33.696,331.600 32.800 C 331.600 32.140,331.420 31.600,331.200 31.600 C 330.980 31.600,330.800 31.150,330.800 30.600 C 330.800 30.050,330.620 29.600,330.400 29.600 C 330.180 29.600,330.000 29.330,330.000 29.000 C 330.000 28.670,329.820 28.400,329.600 28.400 C 329.380 28.400,329.200 28.130,329.200 27.800 C 329.200 27.470,329.020 27.200,328.800 27.200 C 328.580 27.200,328.400 26.840,328.400 26.400 C 328.400 25.960,328.220 25.600,328.000 25.600 C 327.780 25.600,327.600 25.240,327.600 24.800 C 327.600 24.360,327.420 24.000,327.200 24.000 C 326.980 24.000,326.800 23.640,326.800 23.200 C 326.800 22.667,326.533 22.400,326.000 22.400 C 325.333 22.400,325.200 22.133,325.200 20.800 C 325.200 19.644,325.033 19.200,324.600 19.200 C 324.270 19.200,324.000 19.048,324.000 18.861 C 324.000 18.517,323.033 17.246,321.670 15.800 C 321.255 15.360,320.806 14.685,320.671 14.300 C 320.536 13.915,320.149 13.600,319.813 13.600 C 319.476 13.600,319.200 13.370,319.200 13.088 C 319.200 12.807,318.840 12.317,318.400 12.000 C 317.960 11.683,317.600 11.187,317.600 10.899 C 317.600 10.611,317.285 10.258,316.900 10.115 C 316.515 9.972,315.909 9.528,315.553 9.128 C 315.197 8.727,314.701 8.400,314.449 8.400 C 314.198 8.400,313.428 7.860,312.737 7.200 C 312.046 6.540,311.098 6.000,310.629 6.000 C 310.160 6.000,309.517 5.640,309.200 5.200 C 308.883 4.760,308.303 4.400,307.912 4.400 C 307.520 4.400,307.199 4.265,307.197 4.100 C 307.192 3.657,305.179 2.800,304.144 2.800 C 303.651 2.800,303.154 2.649,303.039 2.464 C 302.925 2.279,301.994 2.115,300.971 2.099 C 299.948 2.084,298.915 1.875,298.675 1.635 C 298.436 1.396,297.772 1.200,297.200 1.200 C 296.628 1.200,295.935 0.975,295.661 0.700 C 294.820 -0.141,272.721 -0.264,271.889 0.568 M288.800 1.987 C 296.480 2.830,301.103 4.116,306.600 6.937 C 307.040 7.162,307.876 7.588,308.458 7.882 C 309.040 8.176,309.737 8.683,310.007 9.008 C 310.277 9.334,310.676 9.600,310.893 9.600 C 312.111 9.600,322.400 19.621,322.400 20.806 C 322.400 21.042,322.854 21.722,323.409 22.317 C 323.964 22.913,324.770 24.120,325.200 25.000 C 325.630 25.880,326.391 27.059,326.891 27.620 C 328.070 28.943,328.800 30.235,328.800 31.000 C 328.800 31.336,328.959 31.923,329.153 32.305 C 331.290 36.505,332.302 40.340,332.663 45.600 C 332.792 47.470,333.052 49.297,333.241 49.661 C 333.438 50.037,333.426 50.812,333.215 51.461 C 333.011 52.087,332.738 53.860,332.608 55.400 C 332.254 59.612,331.807 62.032,331.067 63.749 C 329.160 68.177,330.010 68.623,336.570 66.634 C 349.931 62.584,363.898 64.553,374.895 72.038 C 376.158 72.897,377.291 73.600,377.414 73.600 C 377.536 73.600,378.051 74.005,378.557 74.500 C 379.063 74.995,380.045 75.896,380.739 76.503 C 381.432 77.110,382.000 77.836,382.000 78.117 C 382.000 78.398,382.547 78.950,383.215 79.345 C 384.954 80.372,387.321 82.966,389.469 86.200 C 390.493 87.740,391.481 89.060,391.665 89.133 C 391.849 89.207,392.000 89.517,392.000 89.824 C 392.000 90.130,392.359 90.970,392.799 91.690 C 393.238 92.411,393.598 93.227,393.599 93.504 C 393.599 93.782,393.939 94.772,394.354 95.704 C 397.273 102.269,398.458 118.701,396.409 124.200 C 395.715 126.064,395.200 127.901,395.200 128.518 C 395.200 128.881,394.816 130.038,394.346 131.089 C 393.007 134.082,391.020 138.180,390.800 138.400 C 390.690 138.510,390.375 139.005,390.100 139.500 C 389.825 139.995,389.375 140.805,389.100 141.300 C 386.617 145.769,378.830 153.728,375.000 155.713 C 374.340 156.055,373.215 156.640,372.500 157.013 C 371.785 157.386,371.200 157.851,371.200 158.046 C 371.200 158.241,370.851 158.400,370.424 158.400 C 369.997 158.400,369.549 158.560,369.428 158.755 C 369.307 158.950,368.619 159.220,367.897 159.355 C 367.176 159.491,365.959 159.937,365.193 160.347 C 364.427 160.758,363.170 161.228,362.400 161.393 C 361.630 161.558,360.820 161.830,360.600 161.999 C 360.124 162.364,358.346 162.653,353.099 163.218 C 346.320 163.948,236.069 163.556,235.591 162.800 C 235.024 161.902,235.075 48.006,235.645 43.621 C 236.076 40.301,237.380 35.012,237.967 34.200 C 238.126 33.980,238.487 32.990,238.769 32.000 C 240.646 25.412,245.890 18.312,252.671 13.180 C 253.512 12.543,254.347 12.017,254.526 12.011 C 254.705 12.005,255.311 11.454,255.872 10.788 C 256.512 10.026,257.138 9.653,257.552 9.785 C 257.973 9.919,258.355 9.679,258.606 9.124 C 258.983 8.290,261.851 6.661,267.031 4.338 C 268.334 3.754,270.930 2.997,272.800 2.656 C 274.670 2.316,276.560 1.959,277.000 1.865 C 278.383 1.567,285.670 1.643,288.800 1.987 M202.400 168.000 C 202.070 168.213,200.621 168.391,199.180 168.394 C 197.646 168.397,196.337 168.607,196.021 168.900 C 195.584 169.306,195.542 169.288,195.800 168.800 C 196.058 168.312,196.016 168.294,195.579 168.700 C 195.282 168.975,194.576 169.200,194.008 169.200 C 193.435 169.200,192.720 169.556,192.400 170.000 C 192.083 170.440,191.503 170.800,191.112 170.800 C 190.720 170.800,190.400 170.980,190.400 171.200 C 190.400 171.420,190.040 171.600,189.600 171.600 C 189.160 171.600,188.800 171.780,188.800 172.000 C 188.800 172.220,188.512 172.400,188.160 172.400 C 187.809 172.400,187.017 172.940,186.400 173.600 C 185.783 174.260,185.083 174.800,184.843 174.800 C 184.191 174.800,182.400 176.466,182.400 177.072 C 182.400 177.362,182.206 177.600,181.969 177.600 C 181.448 177.600,179.200 179.792,179.200 180.300 C 179.200 180.498,178.750 181.083,178.200 181.600 C 177.650 182.117,177.200 182.832,177.200 183.190 C 177.200 183.547,177.001 184.039,176.759 184.281 C 175.177 185.863,174.306 197.612,175.431 202.200 C 175.808 203.740,176.166 205.414,176.225 205.919 C 176.285 206.425,176.551 207.100,176.816 207.419 C 177.081 207.739,177.174 208.000,177.023 208.000 C 176.872 208.000,177.153 208.720,177.648 209.600 C 178.143 210.480,178.694 211.200,178.874 211.200 C 179.053 211.200,179.200 211.613,179.200 212.119 C 179.200 212.743,180.384 214.224,182.900 216.745 C 187.554 221.410,187.767 221.600,188.334 221.600 C 188.590 221.600,188.800 221.780,188.800 222.000 C 188.800 222.220,189.340 222.400,190.000 222.400 C 190.660 222.400,191.200 222.599,191.200 222.843 C 191.200 223.086,191.448 223.190,191.751 223.074 C 192.054 222.958,192.492 223.052,192.723 223.283 C 193.333 223.893,204.875 223.875,207.800 223.259 C 209.120 222.981,210.920 222.664,211.800 222.553 C 213.743 222.310,216.743 220.881,217.349 219.910 C 217.593 219.519,218.090 219.200,218.454 219.200 C 218.818 219.200,219.540 218.753,220.058 218.207 C 220.576 217.661,221.424 217.211,221.943 217.207 C 222.615 217.202,222.820 217.028,222.655 216.600 C 222.519 216.245,222.651 216.000,222.977 216.000 C 223.309 216.000,223.636 215.369,223.796 214.423 C 223.943 213.556,224.318 212.634,224.631 212.374 C 224.944 212.114,225.200 211.604,225.200 211.239 C 225.200 210.875,225.560 210.317,226.000 210.000 C 226.520 209.625,226.800 208.965,226.800 208.112 C 226.800 207.390,226.980 206.800,227.200 206.800 C 227.420 206.800,227.600 206.440,227.600 206.000 C 227.600 205.560,227.780 205.200,228.000 205.200 C 228.220 205.200,228.400 204.660,228.400 204.000 C 228.400 203.340,228.562 202.800,228.760 202.800 C 229.233 202.800,229.613 199.991,229.854 194.700 C 229.986 191.809,229.911 190.400,229.625 190.400 C 229.391 190.400,229.200 189.961,229.200 189.424 C 229.200 188.887,229.020 188.336,228.800 188.200 C 228.580 188.064,228.400 187.361,228.400 186.638 C 228.400 185.832,228.091 185.044,227.600 184.600 C 227.160 184.202,226.800 183.544,226.800 183.138 C 226.800 182.732,226.620 182.400,226.400 182.400 C 226.180 182.400,226.000 182.175,226.000 181.900 C 225.999 181.625,225.549 180.877,225.000 180.238 C 224.450 179.599,224.000 178.911,224.000 178.710 C 224.000 178.235,220.415 174.800,219.919 174.800 C 219.709 174.800,218.846 174.080,218.000 173.200 C 216.986 172.145,216.112 171.600,215.431 171.600 C 214.667 171.600,214.400 171.393,214.400 170.800 C 214.400 170.342,214.133 170.000,213.776 170.000 C 213.407 170.000,213.269 169.812,213.438 169.538 C 213.607 169.264,213.549 169.185,213.294 169.342 C 213.058 169.488,212.593 169.336,212.261 169.004 C 211.807 168.550,210.711 168.400,207.852 168.400 C 205.747 168.400,203.937 168.221,203.800 168.000 C 203.493 167.503,203.169 167.503,202.400 168.000 M208.800 170.997 C 210.684 171.361,216.617 174.016,217.200 174.757 C 217.310 174.897,218.345 175.790,219.500 176.743 C 220.655 177.695,221.600 178.684,221.600 178.941 C 221.600 179.198,221.949 179.625,222.375 179.892 C 225.315 181.728,229.336 195.768,227.681 198.419 C 227.417 198.842,227.200 199.993,227.200 200.976 C 227.200 201.958,226.993 203.266,226.741 203.881 C 222.471 214.291,218.108 218.474,208.800 221.083 C 205.314 222.060,195.369 221.937,193.117 220.889 C 192.173 220.449,190.837 219.906,190.149 219.683 C 188.395 219.112,186.134 217.374,183.797 214.800 C 182.699 213.590,181.665 212.540,181.500 212.467 C 181.335 212.393,181.200 212.156,181.200 211.940 C 181.200 211.724,180.761 210.971,180.225 210.268 C 179.688 209.565,178.682 207.282,177.988 205.195 C 174.263 193.982,177.803 182.581,187.405 174.871 C 188.392 174.079,192.343 172.127,193.800 171.712 C 194.680 171.462,196.030 171.075,196.800 170.853 C 198.261 170.432,206.376 170.529,208.800 170.997 M304.590 195.216 C 304.488 195.382,306.473 195.497,309.002 195.472 C 311.531 195.447,313.600 195.293,313.600 195.129 C 313.600 194.738,304.833 194.823,304.590 195.216 M314.000 195.281 C 314.000 195.686,317.089 195.703,317.338 195.300 C 317.439 195.135,316.730 194.991,315.761 194.981 C 314.793 194.971,314.000 195.106,314.000 195.281 M254.487 201.621 C 254.468 202.277,254.621 202.711,254.827 202.584 C 255.293 202.295,255.317 200.920,254.860 200.637 C 254.674 200.522,254.506 200.965,254.487 201.621 M167.008 222.787 C 166.868 223.014,166.403 223.200,165.976 223.200 C 165.549 223.200,165.200 223.380,165.200 223.600 C 165.200 223.820,164.840 224.000,164.400 224.000 C 163.960 224.000,163.600 224.180,163.600 224.400 C 163.600 224.620,163.000 224.800,162.267 224.800 C 161.533 224.800,160.823 224.910,160.689 225.044 C 160.554 225.179,159.489 225.363,158.322 225.454 C 157.155 225.544,156.151 225.763,156.090 225.939 C 156.030 226.115,155.456 226.182,154.815 226.088 C 154.174 225.993,153.071 226.205,152.363 226.558 C 151.656 226.911,150.779 227.200,150.415 227.200 C 150.051 227.200,149.404 227.464,148.976 227.787 C 148.549 228.110,147.660 228.382,147.000 228.392 C 144.631 228.425,142.800 228.898,142.800 229.476 C 142.800 229.790,142.619 229.935,142.398 229.799 C 141.916 229.501,139.216 230.395,138.471 231.100 C 138.181 231.375,137.593 231.600,137.166 231.600 C 136.739 231.600,136.077 231.759,135.695 231.953 C 135.313 232.148,134.460 232.529,133.800 232.800 C 133.140 233.071,132.287 233.452,131.905 233.647 C 131.523 233.841,130.928 234.000,130.582 234.000 C 130.236 234.000,130.064 234.180,130.200 234.400 C 130.348 234.639,129.847 234.800,128.952 234.800 C 127.312 234.800,124.800 235.575,124.800 236.080 C 124.800 236.256,124.260 236.400,123.600 236.400 C 122.940 236.400,122.400 236.580,122.400 236.800 C 122.400 237.020,121.860 237.200,121.200 237.200 C 120.540 237.200,120.000 237.380,120.000 237.600 C 120.000 237.820,119.100 238.000,118.000 238.000 C 116.900 238.000,116.000 238.180,116.000 238.400 C 116.000 238.620,115.640 238.800,115.200 238.800 C 114.760 238.800,114.400 238.980,114.400 239.200 C 114.400 239.420,113.871 239.600,113.224 239.600 C 112.577 239.600,111.936 239.780,111.800 240.000 C 111.664 240.220,111.113 240.400,110.576 240.400 C 110.039 240.400,109.600 240.580,109.600 240.800 C 109.600 241.020,108.610 241.200,107.400 241.200 C 106.190 241.200,105.200 241.380,105.200 241.600 C 105.200 241.820,104.870 242.000,104.467 242.000 C 104.063 242.000,103.601 242.133,103.438 242.295 C 103.276 242.457,102.931 242.607,102.672 242.628 C 101.492 242.723,99.600 243.330,99.600 243.613 C 99.600 243.785,98.655 244.019,97.500 244.132 C 94.529 244.423,92.800 244.833,92.800 245.245 C 92.800 245.440,92.361 245.600,91.824 245.600 C 91.287 245.600,90.736 245.780,90.600 246.000 C 90.464 246.220,90.003 246.400,89.576 246.400 C 89.149 246.400,88.800 246.580,88.800 246.800 C 88.800 247.020,87.846 247.200,86.680 247.200 C 85.514 247.200,84.385 247.375,84.171 247.589 C 83.958 247.802,83.427 248.044,82.991 248.126 C 81.181 248.468,80.000 248.909,80.000 249.243 C 80.000 249.440,79.370 249.600,78.600 249.600 C 77.830 249.600,77.200 249.780,77.200 250.000 C 77.200 250.220,76.660 250.400,76.000 250.400 C 75.340 250.400,74.800 250.580,74.800 250.800 C 74.800 251.020,74.204 251.200,73.475 251.200 C 72.704 251.200,71.792 251.534,71.292 252.000 C 70.820 252.440,69.976 252.800,69.417 252.800 C 68.858 252.800,68.400 252.980,68.400 253.200 C 68.400 253.420,67.500 253.600,66.400 253.600 C 65.300 253.600,64.400 253.780,64.400 254.000 C 64.400 254.220,64.045 254.400,63.612 254.400 C 63.179 254.400,62.183 254.760,61.400 255.200 C 60.617 255.640,59.621 256.000,59.188 256.000 C 58.755 256.000,58.400 256.180,58.400 256.400 C 58.400 256.620,57.500 256.800,56.400 256.800 C 55.300 256.800,54.400 256.980,54.400 257.200 C 54.400 257.420,53.860 257.600,53.200 257.600 C 52.540 257.600,52.000 257.780,52.000 258.000 C 52.000 258.220,51.676 258.400,51.280 258.400 C 50.884 258.400,50.344 258.616,50.080 258.880 C 49.816 259.144,49.600 259.235,49.600 259.082 C 49.600 258.929,48.655 259.162,47.500 259.601 C 46.345 260.040,44.813 260.400,44.095 260.400 C 43.377 260.400,42.477 260.557,42.095 260.748 C 40.002 261.796,37.505 262.800,36.989 262.800 C 36.665 262.800,36.400 262.980,36.400 263.200 C 36.400 263.420,35.588 263.600,34.595 263.600 C 33.602 263.600,32.432 263.780,31.995 264.000 C 31.558 264.220,30.842 264.580,30.405 264.800 C 29.968 265.020,29.248 265.200,28.805 265.200 C 28.362 265.200,28.000 265.380,28.000 265.600 C 28.000 265.820,27.460 266.000,26.800 266.000 C 26.140 266.000,25.600 266.163,25.600 266.363 C 25.600 266.563,24.655 266.822,23.500 266.939 C 20.160 267.278,18.400 267.660,18.400 268.044 C 18.400 268.240,18.040 268.400,17.600 268.400 C 17.160 268.400,16.800 268.580,16.800 268.800 C 16.800 269.020,16.260 269.200,15.600 269.200 C 14.940 269.200,14.400 269.380,14.400 269.600 C 14.400 269.820,13.511 270.000,12.424 270.000 C 11.337 270.000,10.336 270.180,10.200 270.400 C 10.064 270.620,9.547 270.800,9.052 270.800 C 8.556 270.800,7.764 271.160,7.292 271.600 C 6.820 272.040,5.976 272.400,5.417 272.400 C 4.858 272.400,4.400 272.580,4.400 272.800 C 4.400 273.020,4.122 273.200,3.782 273.200 C 0.888 273.200,-0.024 280.803,2.560 283.387 C 3.308 284.135,4.024 284.643,4.151 284.516 C 4.277 284.389,4.495 284.581,4.633 284.943 C 4.790 285.352,5.342 285.600,6.096 285.600 C 6.762 285.600,7.597 285.915,7.953 286.300 C 8.733 287.144,11.847 288.800,12.655 288.800 C 12.973 288.800,13.629 289.168,14.111 289.618 C 15.305 290.730,17.127 291.600,18.261 291.600 C 18.778 291.600,19.200 291.780,19.200 292.000 C 19.200 292.220,19.560 292.400,20.000 292.400 C 20.452 292.400,20.800 292.667,20.800 293.013 C 20.800 293.349,21.115 293.742,21.500 293.885 C 21.885 294.028,22.491 294.472,22.847 294.872 C 23.203 295.273,24.030 295.600,24.685 295.600 C 25.340 295.600,26.170 295.925,26.529 296.322 C 26.889 296.719,27.817 297.293,28.591 297.597 C 29.366 297.901,30.000 298.296,30.000 298.475 C 30.000 298.654,30.500 298.800,31.112 298.800 C 31.765 298.800,32.461 299.130,32.800 299.600 C 33.117 300.040,33.571 300.400,33.809 300.400 C 34.475 300.400,36.393 301.363,36.397 301.700 C 36.399 301.865,36.900 302.000,37.512 302.000 C 38.165 302.000,38.861 302.330,39.200 302.800 C 39.517 303.240,40.024 303.600,40.327 303.600 C 40.629 303.600,41.354 303.931,41.938 304.335 C 42.881 304.988,44.237 305.666,44.800 305.767 C 44.910 305.786,45.647 306.297,46.438 306.901 C 47.305 307.564,48.377 308.000,49.138 308.000 C 49.832 308.000,50.400 308.180,50.400 308.400 C 50.400 308.620,50.720 308.800,51.112 308.800 C 51.503 308.800,52.083 309.160,52.400 309.600 C 52.717 310.040,53.209 310.400,53.494 310.400 C 53.778 310.400,54.413 310.625,54.905 310.900 C 55.397 311.175,55.857 311.427,55.928 311.461 C 56.389 311.682,54.316 314.322,53.552 314.486 C 52.823 314.642,52.000 315.445,52.000 316.000 C 52.000 316.735,50.927 317.600,50.016 317.600 C 49.553 317.600,49.058 317.915,48.915 318.300 C 48.772 318.685,47.698 319.965,46.528 321.143 C 45.358 322.322,44.400 323.447,44.400 323.643 C 44.400 323.840,44.084 324.000,43.698 324.000 C 43.302 324.000,42.763 324.524,42.463 325.202 C 42.170 325.864,41.777 326.310,41.589 326.193 C 40.991 325.824,32.044 334.267,31.481 335.733 C 31.340 336.100,30.980 336.400,30.680 336.400 C 30.380 336.400,29.880 336.895,29.568 337.500 C 28.892 338.809,28.190 339.600,27.703 339.600 C 27.509 339.600,27.115 340.196,26.830 340.925 C 26.544 341.653,25.940 342.418,25.488 342.625 C 25.035 342.831,24.471 343.352,24.233 343.783 C 23.569 344.985,22.913 345.600,22.296 345.600 C 21.988 345.600,21.480 346.095,21.168 346.700 C 20.417 348.155,19.780 348.800,19.096 348.800 C 18.788 348.800,18.280 349.295,17.968 349.900 C 17.244 351.302,16.584 352.000,15.981 352.000 C 15.487 352.000,13.218 354.372,13.206 354.900 C 13.203 355.065,12.848 355.200,12.419 355.200 C 11.907 355.200,11.397 355.717,10.940 356.700 C 10.556 357.525,10.120 358.290,9.971 358.400 C 8.203 359.704,7.600 360.241,7.600 360.513 C 7.600 360.962,5.720 362.800,5.261 362.800 C 5.055 362.800,4.776 363.085,4.643 363.433 C 4.253 364.448,4.363 366.800,4.800 366.800 C 5.020 366.800,5.200 367.070,5.200 367.400 C 5.200 367.730,5.352 368.000,5.539 368.000 C 5.971 368.000,7.600 369.403,7.600 369.774 C 7.600 369.929,8.365 370.835,9.300 371.790 C 12.060 374.605,12.800 375.536,12.800 376.186 C 12.800 376.524,13.083 376.800,13.429 376.800 C 14.237 376.800,15.200 377.763,15.200 378.571 C 15.200 378.933,15.539 379.200,16.000 379.200 C 16.533 379.200,16.800 379.467,16.800 380.000 C 16.800 380.448,17.067 380.800,17.405 380.800 C 18.588 380.800,20.472 382.144,20.910 383.300 C 21.056 383.685,21.369 384.000,21.606 384.000 C 22.162 384.000,23.760 385.598,24.107 386.501 C 24.254 386.885,24.552 387.200,24.769 387.200 C 25.275 387.200,27.200 389.115,27.200 389.618 C 27.200 389.828,27.335 390.000,27.500 390.000 C 27.944 390.001,29.735 391.695,30.227 392.579 C 30.461 393.001,30.994 393.539,31.410 393.773 C 32.380 394.320,33.200 395.069,33.200 395.407 C 33.200 397.062,39.068 397.990,39.484 396.400 C 39.599 395.960,39.856 395.600,40.054 395.600 C 40.252 395.600,41.585 394.430,43.015 393.000 C 44.445 391.570,45.791 390.400,46.007 390.400 C 46.223 390.400,46.400 390.061,46.400 389.647 C 46.400 389.230,46.757 388.800,47.200 388.684 C 47.640 388.569,48.000 388.188,48.000 387.837 C 48.000 387.467,48.335 387.200,48.800 387.200 C 49.240 387.200,49.600 387.016,49.600 386.790 C 49.600 386.565,50.680 385.323,52.000 384.032 C 53.320 382.740,54.400 381.485,54.400 381.242 C 54.400 380.999,54.760 380.800,55.200 380.800 C 55.640 380.800,56.000 380.657,56.000 380.482 C 56.000 380.307,57.350 378.770,59.000 377.066 C 60.650 375.361,62.000 373.815,62.000 373.630 C 62.000 373.445,62.360 373.199,62.800 373.084 C 63.240 372.969,63.600 372.588,63.600 372.237 C 63.600 371.867,63.935 371.600,64.400 371.600 C 64.855 371.600,65.200 371.333,65.200 370.982 C 65.200 370.279,66.942 368.400,67.594 368.400 C 67.831 368.400,68.146 368.085,68.293 367.701 C 68.688 366.672,70.271 365.200,70.982 365.200 C 71.322 365.200,71.600 364.917,71.600 364.571 C 71.600 363.941,72.509 362.800,73.011 362.800 C 73.158 362.800,73.783 362.260,74.400 361.600 C 75.017 360.940,75.732 360.400,75.989 360.400 C 76.625 360.400,77.600 359.381,77.600 358.717 C 77.600 358.420,77.960 357.917,78.400 357.600 C 78.840 357.283,79.200 356.793,79.200 356.512 C 79.200 356.230,79.474 356.000,79.810 356.000 C 80.145 356.000,80.578 355.595,80.771 355.100 C 80.964 354.605,81.770 353.580,82.561 352.822 C 83.353 352.063,84.000 351.286,84.000 351.093 C 84.000 350.586,85.063 349.600,85.611 349.600 C 86.144 349.600,88.400 347.301,88.400 346.758 C 88.400 346.561,88.593 346.400,88.829 346.400 C 89.447 346.400,90.400 347.445,90.400 348.122 C 90.400 348.823,91.369 349.698,91.737 349.330 C 91.882 349.185,92.000 349.367,92.000 349.733 C 92.000 350.100,92.168 350.400,92.373 350.400 C 92.578 350.400,92.860 350.759,92.999 351.198 C 93.138 351.636,93.466 352.221,93.727 352.498 C 94.721 353.550,96.400 356.411,96.400 357.053 C 96.400 358.216,98.397 362.000,99.012 362.000 C 99.335 362.000,99.600 362.276,99.600 362.614 C 99.600 363.448,100.784 365.200,101.348 365.200 C 101.599 365.200,102.041 365.785,102.329 366.500 C 103.568 369.574,105.143 372.486,105.700 372.733 C 105.865 372.807,106.000 373.392,106.000 374.033 C 106.000 374.675,106.180 375.200,106.400 375.200 C 106.620 375.200,106.800 375.920,106.800 376.800 C 106.800 377.680,106.980 378.400,107.200 378.400 C 107.420 378.400,107.600 378.760,107.600 379.200 C 107.600 379.640,107.765 380.000,107.967 380.000 C 108.169 380.000,108.742 380.900,109.239 382.000 C 109.736 383.100,110.303 384.000,110.500 384.000 C 110.883 384.000,112.000 385.006,112.000 385.351 C 112.000 385.739,114.554 389.395,115.280 390.047 C 115.676 390.403,116.000 391.218,116.000 391.859 C 116.000 392.565,116.315 393.251,116.800 393.600 C 117.240 393.917,117.600 394.457,117.600 394.800 C 117.600 395.143,117.960 395.683,118.400 396.000 C 118.840 396.317,119.200 396.813,119.200 397.101 C 119.200 397.389,119.515 397.746,119.899 397.893 C 120.283 398.041,121.012 398.575,121.517 399.081 C 122.682 400.245,130.800 400.525,130.800 399.400 C 130.800 399.070,130.947 398.800,131.128 398.800 C 131.308 398.800,131.704 397.889,132.007 396.775 C 132.310 395.661,132.703 394.660,132.879 394.551 C 133.056 394.442,133.200 393.913,133.200 393.376 C 133.200 392.839,133.336 392.400,133.502 392.400 C 134.044 392.400,134.663 389.709,134.761 386.925 C 134.814 385.426,135.024 384.140,135.228 384.067 C 135.433 383.993,135.600 383.305,135.600 382.538 C 135.600 381.771,135.870 380.873,136.199 380.543 C 136.529 380.214,136.900 379.462,137.024 378.872 C 137.147 378.282,137.417 377.487,137.624 377.105 C 137.831 376.723,138.000 375.596,138.000 374.600 C 138.000 373.604,138.171 372.477,138.381 372.095 C 139.454 370.139,140.881 364.757,141.004 362.200 C 141.097 360.270,141.659 358.000,142.045 358.000 C 142.240 358.000,142.400 357.640,142.400 357.200 C 142.400 356.760,142.580 356.400,142.800 356.400 C 143.020 356.400,143.200 355.860,143.200 355.200 C 143.200 354.540,143.380 354.000,143.600 354.000 C 143.820 354.000,144.000 353.640,144.000 353.200 C 144.000 352.760,144.180 352.400,144.400 352.400 C 144.620 352.400,144.800 351.770,144.800 351.000 C 144.800 350.230,144.980 349.600,145.200 349.600 C 145.420 349.600,145.600 348.700,145.600 347.600 C 145.600 346.500,145.780 345.600,146.000 345.600 C 146.220 345.600,146.400 345.118,146.400 344.528 C 146.400 343.437,147.015 341.160,147.649 339.905 C 147.842 339.523,148.000 338.398,148.000 337.405 C 148.000 336.412,148.180 335.600,148.400 335.600 C 148.620 335.600,148.800 335.251,148.800 334.824 C 148.800 334.397,148.980 333.936,149.200 333.800 C 149.420 333.664,149.600 333.119,149.600 332.589 C 149.600 332.058,149.960 330.983,150.400 330.200 C 150.868 329.366,151.200 328.034,151.200 326.988 C 151.200 326.005,151.380 325.200,151.600 325.200 C 151.820 325.200,152.000 324.930,152.000 324.600 C 152.000 324.270,151.813 324.000,151.584 324.000 C 151.356 324.000,151.536 323.606,151.984 323.125 C 152.433 322.643,152.800 321.953,152.800 321.591 C 152.800 321.229,152.930 320.804,153.088 320.645 C 153.246 320.487,153.424 319.640,153.483 318.762 C 153.541 317.885,153.772 316.826,153.995 316.410 C 154.218 315.993,154.400 314.955,154.400 314.101 C 154.400 313.248,154.737 311.841,155.148 310.975 C 155.559 310.109,156.040 308.680,156.217 307.800 C 156.393 306.920,156.558 306.110,156.583 306.000 C 156.608 305.890,156.841 305.418,157.101 304.951 C 157.361 304.485,157.549 303.675,157.519 303.151 C 157.436 301.700,158.058 298.800,158.451 298.800 C 158.643 298.800,158.800 298.080,158.800 297.200 C 158.800 296.320,158.980 295.600,159.200 295.600 C 159.420 295.600,159.600 294.700,159.600 293.600 C 159.600 292.500,159.780 291.600,160.000 291.600 C 160.220 291.600,160.400 291.255,160.400 290.833 C 160.400 290.412,160.535 290.007,160.700 289.933 C 161.593 289.537,163.600 284.560,163.600 282.744 C 163.600 281.675,163.780 280.800,164.000 280.800 C 164.222 280.800,164.400 279.733,164.400 278.400 C 164.400 277.067,164.578 276.000,164.800 276.000 C 165.020 276.000,165.200 275.280,165.200 274.400 C 165.200 273.520,165.380 272.800,165.600 272.800 C 165.820 272.800,166.000 272.451,166.000 272.024 C 166.000 271.597,166.180 271.136,166.400 271.000 C 166.620 270.864,166.800 269.694,166.800 268.400 C 166.800 267.106,166.980 265.936,167.200 265.800 C 167.420 265.664,167.600 265.023,167.600 264.376 C 167.600 263.729,167.780 263.200,168.000 263.200 C 168.220 263.200,168.400 262.570,168.400 261.800 C 168.400 261.030,168.535 260.399,168.700 260.397 C 169.300 260.391,170.000 258.195,170.000 256.320 C 170.000 255.264,170.180 254.400,170.400 254.400 C 170.620 254.400,170.800 254.066,170.800 253.658 C 170.800 253.251,171.272 252.408,171.848 251.785 C 172.647 250.924,172.938 250.124,173.071 248.427 C 173.167 247.202,173.358 245.930,173.494 245.600 C 173.780 244.912,173.843 244.580,174.231 241.688 C 174.387 240.527,174.669 239.481,174.857 239.365 C 175.046 239.248,175.200 238.353,175.200 237.376 C 175.200 236.399,175.380 235.600,175.600 235.600 C 175.837 235.600,176.000 234.133,176.000 232.000 C 176.000 229.867,176.163 228.400,176.400 228.400 C 176.903 228.400,176.929 225.892,176.431 225.380 C 176.228 225.171,176.003 224.460,175.931 223.800 L 175.800 222.600 171.532 222.487 C 168.904 222.417,167.165 222.532,167.008 222.787 M175.200 224.447 C 175.200 224.861,175.356 225.200,175.546 225.200 C 175.890 225.200,175.648 226.738,174.821 229.800 C 174.583 230.680,174.043 232.930,173.621 234.800 C 173.199 236.670,172.669 238.830,172.444 239.600 C 172.219 240.370,171.648 242.530,171.175 244.400 C 169.807 249.808,169.181 252.047,168.383 254.400 C 167.972 255.610,167.517 257.410,167.372 258.400 C 167.226 259.390,166.666 261.550,166.128 263.200 C 164.659 267.697,164.000 270.305,164.000 271.625 C 164.000 272.277,163.838 273.123,163.641 273.505 C 163.211 274.337,161.879 278.795,160.983 282.400 C 160.627 283.830,160.199 285.544,160.031 286.209 C 159.863 286.875,159.518 287.806,159.265 288.278 C 159.012 288.751,158.521 290.277,158.173 291.669 C 157.826 293.061,157.296 295.190,156.996 296.400 C 156.696 297.610,156.248 299.320,155.999 300.200 C 155.750 301.080,155.393 302.430,155.204 303.200 C 154.589 305.712,153.595 309.334,152.570 312.800 C 150.864 318.563,149.200 325.319,149.200 326.482 C 149.200 326.883,149.042 327.523,148.849 327.905 C 148.290 329.011,147.601 331.387,147.594 332.228 C 147.587 333.103,146.690 335.844,146.274 336.259 C 146.123 336.410,146.000 336.875,146.000 337.292 C 146.000 337.709,145.651 339.164,145.225 340.525 C 144.799 341.886,144.234 343.900,143.970 345.000 C 143.706 346.100,143.224 347.900,142.900 349.000 C 142.575 350.100,142.051 351.990,141.735 353.200 C 141.419 354.410,141.010 355.760,140.826 356.200 C 140.494 356.993,140.064 358.522,139.195 362.000 C 138.948 362.990,138.499 364.790,138.197 366.000 C 137.046 370.609,135.617 375.933,134.600 379.400 C 134.019 381.380,133.494 383.540,133.433 384.200 C 133.372 384.860,133.138 385.850,132.912 386.400 C 132.687 386.950,132.383 388.030,132.237 388.800 C 131.235 394.097,129.400 399.040,128.466 398.960 C 128.210 398.938,127.384 398.893,126.631 398.860 C 125.827 398.825,124.776 398.391,124.086 397.811 C 123.440 397.267,122.811 396.923,122.688 397.045 C 122.565 397.168,122.264 396.893,122.018 396.434 C 121.773 395.975,121.315 395.600,121.000 395.600 C 120.685 395.600,120.215 395.195,119.954 394.700 C 119.694 394.205,119.363 393.710,119.219 393.600 C 119.076 393.490,118.625 392.680,118.217 391.800 C 117.809 390.920,116.718 389.030,115.792 387.600 C 113.473 384.022,110.774 379.369,109.721 377.136 C 109.237 376.111,108.652 375.156,108.421 375.013 C 108.189 374.870,108.000 374.396,108.000 373.960 C 108.000 373.523,107.640 372.780,107.200 372.308 C 106.760 371.836,106.399 371.168,106.399 370.825 C 106.398 370.481,106.038 369.611,105.599 368.890 C 105.159 368.170,104.800 367.343,104.800 367.052 C 104.800 366.762,104.440 366.198,104.000 365.800 C 103.560 365.402,103.200 364.843,103.200 364.558 C 103.200 364.273,102.680 363.266,102.044 362.320 C 100.877 360.583,100.072 359.207,97.877 355.200 C 97.214 353.990,96.070 352.052,95.336 350.892 C 94.601 349.733,94.000 348.681,94.000 348.555 C 94.000 347.703,90.517 343.200,89.858 343.200 C 89.093 343.200,83.324 348.804,79.564 353.200 C 76.734 356.509,70.014 363.252,68.200 364.604 C 66.405 365.941,62.430 370.017,62.412 370.539 C 62.405 370.726,58.530 374.719,53.800 379.414 C 49.070 384.108,45.200 388.101,45.200 388.288 C 45.200 388.475,44.660 388.946,44.000 389.336 C 43.340 389.726,42.800 390.305,42.800 390.623 C 42.800 390.940,42.665 391.200,42.500 391.201 C 41.980 391.202,38.800 394.198,38.800 394.687 C 38.800 395.358,37.209 396.378,36.554 396.127 C 35.786 395.832,35.861 395.295,36.700 395.076 C 37.256 394.930,37.225 394.883,36.549 394.846 C 36.081 394.821,35.474 394.530,35.200 394.200 C 34.926 393.870,34.524 393.600,34.307 393.600 C 34.090 393.600,27.765 387.435,20.251 379.900 C 12.737 372.365,6.231 365.975,5.794 365.700 C 5.005 365.203,5.005 365.197,5.786 364.700 C 6.500 364.246,18.043 352.760,36.889 333.750 C 40.787 329.818,44.477 326.145,45.089 325.589 C 45.700 325.033,47.142 323.593,48.293 322.389 C 49.444 321.185,51.913 318.760,53.779 317.000 C 55.646 315.240,57.179 313.597,57.187 313.349 C 57.194 313.101,57.479 312.667,57.819 312.384 C 59.255 311.193,58.258 310.090,54.200 308.378 C 53.100 307.914,51.840 307.338,51.400 307.099 C 50.960 306.859,49.252 305.960,47.605 305.101 C 45.958 304.242,44.518 303.416,44.405 303.264 C 44.292 303.113,43.300 302.570,42.200 302.058 C 40.272 301.161,39.412 300.728,34.211 298.036 C 32.897 297.356,31.665 296.800,31.474 296.800 C 31.283 296.800,30.669 296.440,30.109 296.000 C 29.550 295.560,28.855 295.200,28.564 295.200 C 28.274 295.200,26.453 294.280,24.518 293.155 C 16.666 288.591,7.779 284.000,6.798 284.000 C 6.579 284.000,6.400 283.816,6.400 283.590 C 6.400 283.365,5.959 283.013,5.421 282.808 C 3.102 281.926,2.023 277.881,3.645 276.148 C 4.632 275.093,7.348 273.600,8.281 273.600 C 8.572 273.600,9.123 273.441,9.505 273.246 C 10.362 272.810,14.347 271.567,18.600 270.410 C 20.360 269.931,22.703 269.193,23.808 268.770 C 24.912 268.346,26.058 268.000,26.355 268.000 C 26.652 268.000,27.999 267.646,29.347 267.212 C 33.582 265.852,36.896 264.861,40.000 264.026 C 42.673 263.307,53.199 259.885,58.000 258.175 C 58.990 257.822,60.790 257.275,62.000 256.959 C 63.210 256.643,64.650 256.230,65.200 256.041 C 65.750 255.852,67.550 255.304,69.200 254.825 C 72.451 253.879,77.136 252.419,80.000 251.458 C 82.195 250.721,86.201 249.530,91.000 248.186 C 95.452 246.940,102.124 244.871,109.147 242.560 C 112.088 241.592,114.788 240.798,115.147 240.796 C 115.506 240.793,117.600 240.142,119.800 239.349 C 122.000 238.556,124.520 237.758,125.400 237.577 C 126.280 237.395,128.800 236.680,131.000 235.987 C 133.200 235.294,136.080 234.398,137.400 233.995 C 138.720 233.593,141.150 232.819,142.800 232.276 C 148.771 230.309,156.230 228.055,157.600 227.802 C 158.370 227.660,160.080 227.219,161.400 226.821 C 162.720 226.423,164.610 225.878,165.600 225.608 C 166.590 225.339,168.390 224.790,169.600 224.388 C 173.421 223.119,175.200 223.138,175.200 224.447 M243.800 300.000 C 243.664 300.220,243.923 300.400,244.376 300.400 C 244.829 300.400,245.200 300.220,245.200 300.000 C 245.200 299.780,244.941 299.600,244.624 299.600 C 244.307 299.600,243.936 299.780,243.800 300.000 " stroke="none" fill="#eac47d" fill-rule="evenodd"></path></g></svg>